<?xml version="1.0" encoding="UTF-8"?>
<svg id="_레이어_1" data-name="레이어_1" xmlns="http://www.w3.org/2000/svg" version="1.1" viewBox="0 0 208.6 20.6" width="208px" height="21px">
  <!-- Generator: Adobe Illustrator 29.0.0, SVG Export Plug-In . SVG Version: 2.1.0 Build 186)  -->
  <defs>
    <style>
      .st0 {
        fill: #28b7bc;
      }

      .st0, .st1, .st2 {
        fill-rule: evenodd;
      }

      .st1 {
        fill: #6d7990;
      }

      .st2 {
        fill: #8f82bc;
      }
    </style>
  </defs>
  <path class="st1" d="M55.4,20.4V.4h3.3v20h-3.3ZM110.9,10.6c2.4,0,5.4-.2,7.6-.5V.4h3.4v6.4h3.1v1.9h-3.1v6h-3.4v-2.8c-4.2.6-9.6.5-13.8.6h-1v-1.9h3.8v-4.8h3.4v4.7ZM173.9,20.4h-.3c-.4,0-.7-.3-.7-.7v-4.8h3.4v3.5h10.9v1.9h-13.3ZM190.9,4v-1.9h4.7V.3h3.5v1.8h4.6v1.9h-12.7ZM205.2,16.6c-4.9.8-10.3.6-15.3.6v-1.9h5.6v-2.3c-2-.4-3.8-1.8-3.8-4.1,0-5.6,11-5.7,11.1,0,0,2.2-1.8,3.6-3.7,4.1v2.2c1.8,0,4.5-.2,6.2-.5V.4h3.3v20.1h-3.3v-3.8ZM183.7,14.2h-4.7v-1.8h4.7v-1.5c-2.1.3-4.6.4-6.7.5v2.5h-3.5v-2.4c-1.8,0-3.6,0-5.5,0v-1.8c5.1,0,10.5,0,15.6-.6V.4h3.4v15.2h-3.4v-1.3ZM165.6,20.4h-3.4v-7.9c-1.9.3-4.2.4-6.2.5v7.2h-3.5v-7.1h-.1c-1.8,0-3.6,0-5.4,0v-1.9c4.6,0,10.7,0,15.2-.5V.4h3.4v20ZM140.7,14.8c-3.9.7-8.8.6-12.7.6h-.3c-.4,0-.7-.3-.7-.7v-7.6h6.7V3h-6.7v-2h9.5c.4,0,.7.3.7.7v7.2h-6.7v4.5c3.1,0,7.4-.1,10.3-.6V.4h3.4v20h-3.4v-5.6ZM111.3,18.5h10.9v1.9h-13.6c-.4,0-.7-.3-.7-.7v-5.5h3.4v4.3ZM79.7,11.9h-3.4V.4h3.4v11.5ZM54,20.3h-3.2v-11.7h-3c-.6,1.4-1.4,2.7-2.4,3.9-1.1,1.4-2.4,2.5-3.8,3.6l-2.1-1.7c3.7-2.5,6.1-6.8,6.4-11.4h-6v-1.9h8.8c.2,0,.4,0,.5.2.1.1.2.3.2.5,0,.7,0,1.5-.2,2.2-.1.9-.3,1.8-.6,2.7h2.3V.5h3.2v19.8ZM73.3,5.6c0,6.9-11.9,7-11.9,0s11.9-7,11.9,0ZM64.8,5.6c0,4,5,4,5,0s-5-4-5,0ZM69.3,14.9v3.6h6.9v-3.6h-6.9ZM66.6,20.4c-.4,0-.7-.3-.7-.7v-6.7h13c.4,0,.7.3.7.7v6.7h-13ZM94.5,10.5v1.5h4.4c.4,0,.7.3.7.7v4.3h-10.3v1.6h10.7v1.8h-13.6c-.4,0-.7-.3-.7-.7v-4.4h10.3v-1.5h-10.3v-1.8h5.2v-1.5h-8.7v-1.8h20.8v1.8h-8.5ZM99.6,1.1v6.1h-13.2c-.4,0-.7-.3-.7-.7V.4h13.2c.4,0,.7.3.7.7h0ZM89.1,2.2v3.1h7v-3.1h-7ZM112.6,5.6c.1-1.1.2-2.1.2-3h-7.6V.5h10.4c.2,0,.4,0,.5.2.1.1.2.3.2.5,0,.4,0,.9,0,1.4,0,.7,0,1.4-.2,2.1,0,.7-.2,1.4-.3,2.1,0,.7-.2,1.3-.3,1.9h-3.4c.2-1,.4-2,.5-3.1h0ZM148.6,5.1c0-6.5,11.5-6.4,11.5,0s-11.5,6.5-11.5,0ZM151.9,5.1c0,3.4,4.8,3.6,4.8,0s-4.8-3.4-4.8,0ZM181,4.4c0,5.9-11.3,6-11.3,0s11.3-5.9,11.3,0ZM173.1,4.4c0,3.2,4.5,3.1,4.5,0s-4.5-3.1-4.5,0h0ZM195.1,8.9c0,3,4.4,3,4.4,0s-4.4-3-4.4,0"/>
  <path class="st0" d="M0,0h31.4v20.6h-4.7V4.4H0V0Z"/>
  <path class="st2" d="M22,20.6h-4.7v-7.4H0v-4.4h22v11.8Z"/>
</svg>