<svg width="229" height="30" fill="none" xmlns="http://www.w3.org/2000/svg"><path d="M21.18 2.552c-3.392-3.403-8.95-3.403-12.352 0L2.552 8.828c-3.403 3.402-3.403 8.96 0 12.352l6.276 6.276c3.392 3.392 8.96 3.392 12.352 0l6.276-6.276c3.402-3.402 3.402-8.96 0-12.352L21.18 2.552Zm-9.858 21.67h-.043a.93.93 0 0 1-.93-.887.914.914 0 0 1 .244-.665.943.943 0 0 1 .644-.296.93.93 0 0 1 .962.887.93.93 0 0 1-.888.962h.01Zm11.147-3.877c-1.279 2.029-2.959 3.445-4.501 3.804h-.043c-.285.053-.56.074-.824.074-.993 0-1.7-.38-2.197-.708a5.853 5.853 0 0 1-1.374-1.3c-2.652-3.413-2.832-9.794-2.842-10.513-.032-1.701.211-4.005 1.542-5.315.645-.644 1.458-.972 2.41-.972h.158c.95 0 1.764.328 2.42.972 1.33 1.321 1.574 3.624 1.542 5.315-.032 1.775-.359 5.199-2.187 8.273a.824.824 0 0 1-.719.402.847.847 0 0 1-.422-.116.837.837 0 0 1-.285-1.142c1.289-2.155 1.902-4.522 1.954-7.449.032-1.944-.338-3.402-1.056-4.11-.328-.327-.74-.486-1.247-.486h-.148c-.507 0-.92.159-1.247.486-.708.708-1.088 2.166-1.046 4.11.042 2.399.613 7.1 2.494 9.52.306.391.634.708.972.93.327.222.708.433 1.289.433.158 0 .328-.01.507-.042 1.078-.264 2.43-1.458 3.445-3.064a.82.82 0 0 1 .708-.39.832.832 0 0 1 .813.644.8.8 0 0 1-.105.623l-.011.021ZM53.724 9.452c-4.121 0-6.594 2.546-6.594 5.706 0 3.159 2.473 5.695 6.594 5.695 4.12 0 6.604-2.547 6.604-5.696 0-3.148-2.473-5.705-6.604-5.705Zm0 10.175c-1.966 0-3.477-1.997-3.477-4.459 0-2.462 1.511-4.48 3.477-4.48 1.965 0 3.487 2.008 3.487 4.48 0 2.473-1.511 4.459-3.487 4.459Zm7.164-8.484h4.342v9.235h3.276v-9.235h3.666V9.875H60.888v1.268Zm12.478 0h3.667v9.235h3.275v-9.235h4.353V9.875H73.366v1.268ZM40.6 18.497V9.875h-3.138v9.245c0 .698.56 1.247 1.247 1.247h8.041V19.11h-5.516a.625.625 0 0 1-.623-.623l-.01.01Zm45.837-7.364v7.998c0 .697.56 1.257 1.257 1.257h8.57v-1.246h-6.045a.634.634 0 0 1-.634-.624v-3.096h6.572v-1.225h-6.572v-2.452c0-.348.286-.623.634-.623h6.044V9.875h-8.57a1.26 1.26 0 0 0-1.256 1.258Zm21.481 3.381h-4.016v-3.498h-1.468v8.4h1.468v-3.54h4.016v3.54h1.468v-8.4h-1.468v3.498Zm8.093-3.647c-2.578 0-4.406 1.976-4.406 4.343v.021c0 2.367 1.796 4.322 4.385 4.322 2.589 0 4.406-1.976 4.406-4.343v-.021c0-2.367-1.796-4.322-4.385-4.322Zm2.832 4.375c0 1.627-1.162 2.948-2.832 2.948-1.669 0-2.853-1.342-2.853-2.98v-.021c0-1.627 1.163-2.948 2.832-2.948 1.67 0 2.853 1.342 2.853 2.98v.02Zm2.694-2.852h2.674v7.026h1.479V12.39h2.673v-1.374h-6.826v1.374Zm10.112 3.465h4.216v-1.33h-4.216v-2.188h4.755v-1.32h-6.223v8.4h6.286v-1.321h-4.818v-2.24Zm8.517-4.839h-1.48v8.4h5.896v-1.342h-4.416v-7.058Zm9.784 3.528c-1.617-.38-2.008-.677-2.008-1.321v-.021c0-.55.507-.993 1.363-.993.772 0 1.522.296 2.283.866l.792-1.12c-.856-.687-1.828-1.057-3.043-1.057-1.669 0-2.863.994-2.863 2.441v.021c0 1.554 1.003 2.082 2.8 2.505 1.563.359 1.891.686 1.891 1.289v.02c0 .624-.571 1.057-1.49 1.057-1.035 0-1.849-.401-2.652-1.088l-.888 1.057a5.175 5.175 0 0 0 3.508 1.342c1.765 0 3.001-.94 3.001-2.505v-.02c0-1.396-.909-2.03-2.684-2.463l-.01-.01Zm14.338.994-1.12-.592a13.647 13.647 0 0 1-.898 1.617l-1.437-1.469c1.12-.422 1.849-1.078 1.849-2.187v-.021c0-1.13-.898-2.029-2.229-2.029-1.501 0-2.409.983-2.409 2.124v.021c0 .613.211 1.13.697 1.754-1.152.476-1.796 1.257-1.796 2.335v.021c0 1.448 1.183 2.399 2.757 2.399 1.004 0 1.849-.423 2.568-1.088l1.12 1.14 1.109-.792-1.331-1.342c.433-.58.803-1.236 1.141-1.912l-.021.021Zm-4.871-2.494c0-.58.412-1.003 1.004-1.003.549 0 .951.38.951.95v.022c0 .602-.454.993-1.321 1.31-.465-.518-.634-.824-.634-1.247v-.032Zm.423 5.273c-.814 0-1.406-.518-1.406-1.226v-.02c0-.54.339-1.058 1.12-1.396l1.871 1.913c-.476.454-1.004.729-1.585.729Zm16.113-4.627v-.022c0-.729-.253-1.352-.697-1.817-.539-.528-1.363-.835-2.42-.835h-3.74v8.4h1.479V16.49h1.849l2.06 2.927h1.754l-2.271-3.18c1.162-.338 1.997-1.162 1.997-2.546h-.011Zm-5.389 1.49v-2.822h2.145c1.089 0 1.744.497 1.744 1.395v.021c0 .856-.676 1.405-1.733 1.405h-2.156Zm9.13.675h4.215v-1.33h-4.215v-2.188h4.754v-1.32h-6.234v8.4h6.287v-1.321h-4.807v-2.24Zm10.28-1.311c-1.616-.38-2.007-.677-2.007-1.321v-.021c0-.55.507-.993 1.363-.993.771 0 1.521.296 2.282.866l.793-1.12c-.856-.687-1.828-1.057-3.043-1.057-1.67 0-2.864.994-2.864 2.441v.021c0 1.554 1.004 2.082 2.8 2.505 1.564.359 1.892.686 1.892 1.289v.02c0 .624-.571 1.057-1.49 1.057-1.036 0-1.849-.401-2.652-1.088l-.888 1.057a5.175 5.175 0 0 0 3.508 1.342c1.765 0 3.001-.94 3.001-2.505v-.02c0-1.396-.909-2.03-2.684-2.463l-.011-.01Zm8.739-3.677c-2.578 0-4.406 1.976-4.406 4.343v.021c0 2.367 1.796 4.322 4.385 4.322 2.588 0 4.406-1.976 4.406-4.343v-.021c0-2.367-1.797-4.322-4.385-4.322Zm2.831 4.375c0 1.627-1.162 2.948-2.831 2.948-1.67 0-2.853-1.342-2.853-2.98v-.021c0-1.627 1.162-2.948 2.832-2.948 1.669 0 2.852 1.342 2.852 2.98v.02Zm10.641-1.552v-.022c0-.729-.254-1.352-.698-1.817-.539-.528-1.373-.835-2.419-.835h-3.741v8.4h1.479V16.49h1.849l2.061 2.927h1.754l-2.272-3.18c1.162-.338 1.997-1.162 1.997-2.546h-.01Zm-5.389 1.49v-2.822h2.145c1.088 0 1.743.497 1.743 1.395v.021c0 .856-.676 1.405-1.733 1.405h-2.155Zm6.9-2.79h2.673v7.026h1.479V12.39h2.673v-1.374h-6.825v1.374Zm11.939 2.154c-1.616-.38-2.007-.677-2.007-1.321v-.021c0-.55.507-.993 1.363-.993.771 0 1.521.296 2.282.866l.793-1.12c-.856-.687-1.828-1.057-3.044-1.057-1.669 0-2.863.994-2.863 2.441v.021c0 1.554 1.004 2.082 2.8 2.505 1.564.359 1.891.686 1.891 1.289v.02c0 .624-.57 1.057-1.489 1.057-1.036 0-1.85-.401-2.653-1.088l-.887 1.057a5.175 5.175 0 0 0 3.508 1.342c1.764 0 3.001-.94 3.001-2.505v-.02c0-1.396-.909-2.03-2.684-2.463l-.011-.01Z" fill="#978773"/></svg>