<svg width="241" height="28" viewBox="0 0 241 28" fill="none" xmlns="http://www.w3.org/2000/svg">
<g clip-path="url(#clip0_7969_337)">
<mask id="mask0_7969_337" style="mask-type:luminance" maskUnits="userSpaceOnUse" x="-1" y="0" width="241" height="28">
<path d="M239.592 0H-0.0761719V28H239.592V0Z" fill="white"/>
</mask>
<g mask="url(#mask0_7969_337)">
<path d="M105.521 11.4305C102.659 11.4305 102.12 9.73915 102.25 7.82476H104.564C104.564 8.88418 104.61 9.76699 105.884 9.76699C106.664 9.76699 107.045 9.2652 107.045 8.51243C107.045 6.52373 102.389 6.4029 102.389 3.11317C102.389 1.38466 103.216 0 106.032 0C108.281 0 109.396 1.01294 109.247 3.32692H106.999C106.999 2.49983 106.859 1.65416 105.93 1.65416C105.177 1.65416 104.731 2.06306 104.731 2.83439C104.731 4.93462 109.387 4.74876 109.387 8.22435C109.387 11.0866 107.287 11.4212 105.53 11.4212L105.521 11.4305Z" fill="#1428A0"/>
<path d="M112.398 11.2447L113.029 8.79127H116.189L116.802 11.2447H119.237L116.226 0.185913H113.178L110.111 11.2447H112.388H112.398ZM115.687 7.09997H113.485L114.544 2.32332H114.572L115.687 7.09997Z" fill="#1428A0"/>
<path d="M120.195 11.2447V0.185913H123.912L125.641 7.70401H125.678L127.509 0.185913H131.114V11.2447H128.856V2.71363H128.828L126.7 11.2447H124.498L122.472 2.71363H122.444V11.2447H120.195Z" fill="#1428A0"/>
<path d="M135.919 11.4305C133.057 11.4305 132.518 9.74842 132.638 7.83408H134.952C134.952 8.89345 134.999 9.77631 136.272 9.77631C137.053 9.77631 137.433 9.27446 137.433 8.52175C137.433 6.53305 132.778 6.41222 132.778 3.11317C132.778 1.38466 133.605 0 136.421 0C138.67 0 139.785 1.01294 139.636 3.32692H137.387C137.387 2.49983 137.248 1.65416 136.309 1.65416C135.556 1.65416 135.12 2.06306 135.12 2.83439C135.12 4.93462 139.776 4.74876 139.776 8.22435C139.776 11.0866 137.675 11.4212 135.919 11.4212V11.4305Z" fill="#1428A0"/>
<path d="M148.827 0.185913V8.02924C148.827 9.6834 147.888 11.4305 145.072 11.4305C142.526 11.4305 141.309 10.1109 141.309 8.02924V0.185913H143.622V7.87126C143.622 9.23734 144.208 9.76707 145.044 9.76707C146.057 9.76707 146.513 9.08867 146.513 7.87126V0.185913H148.827Z" fill="#1428A0"/>
<path d="M150.648 11.2447V0.185913H153.771L156.717 7.84342H156.745V0.185913H158.901V11.2447H155.853L152.842 3.15969H152.804V11.2447H150.648Z" fill="#1428A0"/>
<path d="M165.823 3.58712C165.842 2.56489 165.666 1.65416 164.448 1.65416C163.008 1.65416 163.008 3.59642 163.008 5.74312C163.008 9.20015 163.342 9.81346 164.662 9.81346C165.043 9.81346 165.461 9.72052 165.805 9.59975V7.14635H164.55V5.44573H168.119V11.0494C167.487 11.1703 165.917 11.4212 164.996 11.4212C161.112 11.4212 160.666 9.81346 160.666 5.62229C160.666 2.83439 160.805 0 164.578 0C166.846 0 168.249 1.27315 168.119 3.57783H165.823V3.58712Z" fill="#1428A0"/>
<path d="M102.23 27.8142V16.7554H108.262V18.4561H104.544V21.1789H107.974V22.8796H104.544V26.1135H108.382V27.8142H102.23Z" fill="#1428A0"/>
<path d="M109.822 27.8142V16.7554H112.137V25.9742H115.593V27.8142H109.822Z" fill="#1428A0"/>
<path d="M116.533 27.8142V16.7554H122.565V18.4561H118.847V21.1789H122.276V22.8796H118.847V26.1135H122.685V27.8142H116.533Z" fill="#1428A0"/>
<path d="M124.004 22.2846C124.004 19.3574 124.004 16.5787 127.814 16.5787C130.174 16.5787 131.122 17.8798 131.029 20.2495H128.762C128.762 18.7812 128.502 18.2236 127.814 18.2236C126.513 18.2236 126.346 19.4503 126.346 22.2846C126.346 25.1191 126.513 26.3457 127.814 26.3457C128.883 26.3457 128.836 24.9703 128.873 24.0968H131.15C131.15 27.052 129.97 27.9999 127.814 27.9999C124.004 27.9999 124.004 25.1841 124.004 22.2846Z" fill="#1428A0"/>
<path d="M139.133 16.7554V18.5955H136.559V27.8142H134.245V18.5955H131.68V16.7554H139.133Z" fill="#1428A0"/>
<path d="M142.396 23.2327H142.991C144.765 23.2327 144.645 24.3478 144.645 25.6674C144.645 26.383 144.58 27.1358 144.887 27.8142H147.154C146.94 27.3588 146.893 25.2772 146.893 24.5709C146.893 22.5822 145.398 22.4613 144.887 22.3963V22.3684C146.392 22.1268 146.94 21.0674 146.94 19.6549C146.94 17.7684 145.927 16.7554 144.357 16.7554H140.082V27.8142H142.396V23.2327ZM142.396 18.456H143.427C144.161 18.456 144.608 18.8556 144.608 19.915C144.608 20.6213 144.348 21.5413 143.427 21.5413H142.396V18.4653" fill="#1428A0"/>
<path d="M152.273 27.9907C156.083 27.9907 156.083 25.1749 156.083 22.2754C156.083 19.376 156.083 16.5695 152.273 16.5695C148.463 16.5695 148.463 19.3574 148.463 22.2754C148.463 25.1935 148.463 27.9907 152.273 27.9907ZM152.273 26.3365C150.972 26.3365 150.805 25.1098 150.805 22.2754C150.805 19.4411 150.972 18.2144 152.273 18.2144C153.575 18.2144 153.741 19.4411 153.741 22.2754C153.741 25.1098 153.575 26.3365 152.273 26.3365Z" fill="#1428A0"/>
<path d="M161.307 22.898H157.553V24.4592H161.307V22.898Z" fill="#1428A0"/>
<path d="M162.822 27.8142V16.7554H166.539L168.268 24.2735H168.305L170.136 16.7554H173.741V27.8142H171.493V19.2831H171.455L169.327 27.8142H167.125L165.099 19.2831H165.071V27.8142H162.822Z" fill="#1428A0"/>
<path d="M175.543 27.8142V16.7554H181.574V18.4561H177.857V21.1789H181.286V22.8796H177.857V26.1135H181.704V27.8142H175.543Z" fill="#1428A0"/>
<path d="M183.016 22.2847C183.016 19.3574 183.016 16.5788 186.826 16.5788C189.186 16.5788 190.134 17.8798 190.041 20.2495H187.774C187.774 18.7812 187.514 18.2236 186.826 18.2236C185.524 18.2236 185.358 19.4503 185.358 22.2847C185.358 25.1191 185.524 26.3457 186.826 26.3457C187.894 26.3457 187.848 24.9704 187.885 24.0968H190.171C190.171 27.052 188.991 27.9999 186.835 27.9999C183.025 27.9999 183.025 25.1841 183.025 22.2847H183.016Z" fill="#1428A0"/>
<path d="M196.602 21.1789V16.7554H198.906V27.8142H196.602V22.8796H193.953V27.8142H191.639V16.7554H193.953V21.1789H196.602Z" fill="#1428A0"/>
<path d="M202.279 27.8142L202.911 25.3608H206.061L206.675 27.8142H209.109L206.108 16.7554H203.059L200.002 27.8142H202.288H202.279ZM205.569 23.6694H203.366L204.425 18.8929H204.453L205.569 23.6694Z" fill="#1428A0"/>
<path d="M210.133 27.8142V16.7554H213.255L216.201 24.4129H216.229V16.7554H218.385V27.8142H215.346L212.326 19.7292H212.289V27.8142H210.133Z" fill="#1428A0"/>
<path d="M222.566 16.7554H220.252V27.8142H222.566V16.7554Z" fill="#1428A0"/>
<path d="M224.332 22.2847C224.332 19.3574 224.332 16.5788 228.142 16.5788C230.503 16.5788 231.451 17.8798 231.357 20.2495H229.09C229.09 18.7812 228.83 18.2236 228.142 18.2236C226.841 18.2236 226.674 19.4503 226.674 22.2847C226.674 25.1191 226.841 26.3457 228.142 26.3457C229.22 26.3457 229.174 24.9704 229.201 24.0968H231.488C231.488 27.052 230.307 27.9999 228.151 27.9999C224.341 27.9999 224.341 25.1841 224.341 22.2847H224.332Z" fill="#1428A0"/>
<path d="M235.874 27.9907C233.012 27.9907 232.473 26.3086 232.594 24.3943H234.907C234.907 25.4536 234.954 26.3365 236.218 26.3365C236.999 26.3365 237.379 25.8347 237.379 25.0819C237.379 23.0932 232.724 22.9724 232.724 19.6734C232.724 17.9449 233.551 16.5695 236.367 16.5695C238.616 16.5695 239.731 17.5825 239.582 19.8964H237.333C237.333 19.0693 237.194 18.2237 236.264 18.2237C235.512 18.2237 235.066 18.6326 235.066 19.4039C235.066 21.5041 239.721 21.3183 239.721 24.7939C239.721 27.6561 237.621 27.9907 235.865 27.9907H235.874Z" fill="#1428A0"/>
<path d="M84.1984 6.66302C85.3507 13.2518 67.4248 21.8665 44.1641 25.9182C20.9036 29.97 1.11864 27.9163 -0.0244086 21.3275C-1.16746 14.7387 16.7588 6.12402 40.0101 2.07223C63.2706 -1.97954 83.0461 0.0742251 84.1984 6.66302Z" fill="#1428A0"/>
<path d="M62.3129 16.4484L62.1923 9.6087H64.3483V18.2327H61.2538L59.0978 11.1513H59.0509L59.1629 18.2327H57.0252V9.6087H60.2592L62.2666 16.4484H62.3129Z" fill="white"/>
<path d="M23.0774 10.4172L21.8786 18.3256H19.5275L21.1445 9.6087H25.0197L26.6274 18.3256H24.2855L23.1239 10.4172H23.0774Z" fill="white"/>
<path d="M33.2441 16.2718L34.3221 9.6087H37.872L38.0672 18.3256H35.8833L35.8276 10.4916H35.7811L34.3221 18.3256H32.1103L30.6513 10.4916H30.6049L30.5491 18.3256H28.3652L28.5604 9.6087H32.1197L33.1977 16.2718H33.2441Z" fill="white"/>
<path d="M15.8564 15.863C15.9401 16.0768 15.9122 16.3463 15.875 16.5135C15.8007 16.8016 15.6055 17.099 15.0294 17.099C14.4811 17.099 14.1465 16.783 14.1465 16.3091V15.4634H11.8047V16.1418C11.8047 18.084 13.3287 18.6695 14.9736 18.6695C16.6185 18.6695 17.8451 18.1305 18.0589 16.6808C18.1611 15.928 18.0868 15.4355 18.0589 15.2496C17.6872 13.4282 14.3881 12.8799 14.1372 11.8577C14.1 11.6811 14.1094 11.4953 14.1372 11.393C14.2023 11.1143 14.3881 10.8076 14.9364 10.8076C15.4475 10.8076 15.7449 11.1235 15.7449 11.5975V12.1365H17.9195V11.5232C17.9195 9.62735 16.2189 9.32996 14.9829 9.32996C13.4309 9.32996 12.1671 9.84112 11.9348 11.2629C11.8697 11.6533 11.8604 12.0064 11.9534 12.4432C12.3344 14.2274 15.429 14.7385 15.8843 15.8723L15.8564 15.863Z" fill="white"/>
<path d="M44.2104 15.8537C44.2941 16.0582 44.2662 16.3277 44.229 16.495C44.1546 16.7831 43.9595 17.0712 43.3833 17.0712C42.8443 17.0712 42.5191 16.7552 42.5191 16.2905V15.4542H40.2051V16.114C40.2051 18.0376 41.7199 18.6231 43.3369 18.6231C44.9539 18.6231 46.1806 18.0934 46.385 16.6529C46.4872 15.9095 46.4128 15.417 46.385 15.2404C46.0226 13.4282 42.7421 12.8892 42.5005 11.8856C42.454 11.709 42.4726 11.5325 42.5005 11.4302C42.5655 11.1515 42.7514 10.8541 43.2904 10.8541C43.7923 10.8541 44.0896 11.1607 44.0896 11.6347V12.1644H46.2456V11.5604C46.2456 9.68314 44.5543 9.3858 43.3276 9.3858C41.7942 9.3858 40.5397 9.8876 40.3073 11.3001C40.2423 11.6905 40.2423 12.0343 40.3259 12.4618C40.6977 14.2275 43.7644 14.7386 44.2104 15.8537Z" fill="white"/>
<path d="M51.5237 17.0246C52.1277 17.0246 52.3229 16.6064 52.3601 16.3927C52.3786 16.2997 52.3786 16.1696 52.3786 16.0581V9.6087H54.5907V15.8629C54.5907 16.0209 54.581 16.3555 54.5718 16.4391C54.414 18.0654 53.1314 18.5951 51.5237 18.5951C49.916 18.5951 48.6335 18.0654 48.4756 16.4391C48.4756 16.3555 48.4477 16.0302 48.457 15.8629V9.6087H50.6594V16.0581C50.6594 16.1696 50.6594 16.2997 50.678 16.3927C50.7245 16.6064 50.9103 17.0246 51.5144 17.0246H51.5237Z" fill="white"/>
<path d="M69.7188 16.9316C70.3504 16.9316 70.5733 16.532 70.6105 16.2997C70.6293 16.1975 70.6294 16.0767 70.6294 15.9652V14.7013H69.7371V13.4281H72.8317V15.77C72.8317 15.9373 72.8317 16.0488 72.8037 16.3462C72.655 17.9353 71.2798 18.5021 69.7371 18.5021C68.1944 18.5021 66.8192 17.9353 66.6706 16.3462C66.6426 16.0581 66.6426 15.9373 66.6426 15.77V12.0992C66.6426 11.9412 66.6609 11.6717 66.6797 11.5231C66.8747 9.89675 68.1944 9.36707 69.7371 9.36707C71.2798 9.36707 72.6367 9.88749 72.7945 11.5231C72.8225 11.8018 72.8134 12.0992 72.8134 12.0992V12.3873H70.6105V11.8948C70.6105 11.8948 70.6105 11.6903 70.583 11.5602C70.5459 11.3651 70.3784 10.9283 69.7091 10.9283C69.0404 10.9283 68.8917 11.3465 68.8449 11.5602C68.8169 11.6717 68.8077 11.8297 68.8077 11.9691V15.9558C68.8077 16.0674 68.8077 16.1882 68.8266 16.2904C68.8637 16.5227 69.0867 16.9223 69.7188 16.9223V16.9316Z" fill="white"/>
</g>
</g>
<defs>
<clipPath id="clip0_7969_337">
<rect width="241" height="28" fill="white"/>
</clipPath>
</defs>
</svg>
