<svg xmlns="http://www.w3.org/2000/svg" width="40" height="40" viewBox="0 0 40 40" fill="none"><g clip-path="url(#clip0_14435_426)"><path d="M37.6156 35.7812C37.7388 35.8996 37.8361 36.0423 37.9014 36.2002C37.9666 36.3582 37.9982 36.5279 37.9944 36.6988C37.9959 36.9562 37.9208 37.2082 37.7786 37.4228C37.6365 37.6373 37.4337 37.8047 37.1961 37.9037C36.9585 38.0027 36.6968 38.0288 36.4444 37.9786C36.1919 37.9284 35.9601 37.8043 35.7784 37.622C35.6569 37.5012 35.5608 37.3573 35.496 37.1987C35.4311 37.0401 35.3988 36.8701 35.4008 36.6988C35.4005 36.3545 35.5365 36.0242 35.7792 35.78C36.0219 35.5359 36.3514 35.3978 36.6956 35.396C36.8673 35.3927 37.0378 35.4253 37.1962 35.4916C37.3546 35.5579 37.4975 35.6566 37.6156 35.7812ZM37.768 35.6312C37.6286 35.4889 37.4616 35.3764 37.2773 35.3008C37.093 35.2251 36.8952 35.1878 36.696 35.1912C36.4478 35.1916 36.2035 35.2531 35.9848 35.3705C35.7661 35.4879 35.5798 35.6574 35.4422 35.864C35.3047 36.0706 35.2203 36.308 35.1964 36.555C35.1726 36.8021 35.2101 37.0512 35.3055 37.2803C35.401 37.5094 35.5515 37.7114 35.7437 37.8684C35.9359 38.0255 36.1639 38.1327 36.4074 38.1805C36.651 38.2283 36.9026 38.2153 37.1399 38.1427C37.3772 38.07 37.593 37.94 37.768 37.764C37.9083 37.6239 38.0195 37.4575 38.0954 37.2744C38.1713 37.0913 38.2104 36.895 38.2104 36.6968C38.2104 36.4986 38.1713 36.3023 38.0954 36.1192C38.0195 35.936 37.9083 35.7697 37.768 35.6296V35.6312ZM36.9208 36.626C36.8315 36.6555 36.7375 36.668 36.6436 36.6628H36.382V36.0628H36.6312C36.7912 36.0628 36.9112 36.0856 36.982 36.126C37.0528 36.1664 37.0924 36.2488 37.0924 36.366C37.0965 36.4222 37.0819 36.4782 37.0509 36.5252C37.0198 36.5722 36.9741 36.6077 36.9208 36.626ZM36.0908 37.5176H36.382V36.8664H36.6128C36.7656 36.8664 36.8752 36.8824 36.9372 36.9208C37.04 36.9824 37.0924 37.1096 37.0924 37.3V37.4332L37.098 37.4832C37.1001 37.4897 37.1015 37.4964 37.1024 37.5032C37.1024 37.5112 37.1048 37.514 37.11 37.5176H37.3804L37.3708 37.4984C37.3593 37.4718 37.3545 37.4428 37.3568 37.414C37.3532 37.3684 37.3532 37.328 37.3532 37.2912V37.1684C37.3497 37.0755 37.3182 36.9858 37.2628 36.9112C37.2012 36.8228 37.1048 36.7708 36.9752 36.748C37.0595 36.7366 37.1409 36.7094 37.2152 36.668C37.326 36.598 37.3776 36.4856 37.3776 36.34C37.3776 36.1328 37.2952 35.9908 37.1216 35.9204C37.026 35.8804 36.876 35.8608 36.6696 35.8608H36.0908V37.5176Z" fill="#E4002B"></path><path d="M38.3436 24.8124C38.4508 22.6788 38.0568 20.3804 36.2004 18.3008C34.2924 16.2444 31.0736 14.5008 24.4516 14.092C24.7956 13.0188 25.0964 12.0356 25.414 11.0312C29.374 11.1704 32.8964 11.4556 35.894 11.8448C36.1308 10.7708 36.2592 9.72079 36.5044 8.70759C36.2001 8.26252 35.8777 7.82999 35.5372 7.40999C34.1112 7.24519 32.6892 6.88999 31.1588 6.69399C29.0896 6.42679 26.9236 6.23599 24.5836 6.12799C23.11 10.5172 21.268 16.04 19.3784 21.748C29.2288 22.6 33.0168 25.2548 32.804 29C32.6076 31.0228 30.7584 32.862 28.3268 33.08C25.4344 33.2744 24.1104 32.106 23.2412 30.824C22.4756 29.6728 21.712 28.5192 20.8968 27.264C20.6752 26.8948 20.3828 27.1348 20.1192 27.3924C19.5224 27.9716 18.9552 28.5184 18.3656 29.0836C17.9864 29.4132 18.0708 29.6964 18.2056 29.9728C18.7564 31.2712 19.2692 32.4616 19.7872 33.6432C20.6496 34.1716 24.7032 34.8932 27.7348 34.6664C29.7892 34.4936 32.3576 33.6992 34.4808 32.1C36.578 30.4716 38.1068 28.28 38.3436 24.8124Z" fill="white"></path><path d="M3.89324 31.852C4.27244 32.3664 4.6751 32.8615 5.10124 33.3372C8.50884 33.95 12.758 34.3736 17.1832 34.5024C17.1684 34.0432 17.1552 33.5972 17.1432 33.124C14.4256 32.9708 13.1764 32.5564 12.9592 32.0188C12.778 31.5916 12.7464 30.9536 12.7076 30.3236C12.5036 26.1496 12.4368 21.6348 12.5076 17.1032C14.0276 17.0768 15.5408 17.0632 17.1288 17.046C17.8984 16.6952 18.6224 16.3484 19.3904 16.006C19.3904 15.4572 19.394 14.966 19.394 14.4304C17.0408 14.44 14.808 14.48 12.57 14.542C12.6332 12.6372 12.708 10.8788 12.8196 9.16362C12.8996 8.03642 13.68 7.21242 14.4852 7.14802C15.7756 7.09762 16.9344 7.61042 18.056 8.10802C18.6744 8.40762 19.284 8.70562 19.9176 9.03002C20.22 9.11002 20.5792 9.18122 20.7956 8.91842C21.1712 8.47362 21.528 8.06042 21.8976 7.62802C22.0976 7.33242 22.0112 7.16282 21.9292 7.05402C21.1244 6.41842 20.3672 5.84682 19.6008 5.27242C19.1276 4.95242 18.3804 4.88202 17.644 4.88202C17.3504 4.88202 17.0556 4.89282 16.782 4.90162C16.0252 4.94162 15.062 5.06162 13.4848 5.44642C9.93244 6.40322 5.66764 8.88002 5.21684 12.9308C5.15884 13.592 5.11044 14.2468 5.06764 14.9232C4.06444 15.0076 3.15124 15.08 2.28924 15.1632C2.22604 15.9376 2.18364 16.6832 2.14844 17.4668C3.02124 17.4156 3.93164 17.37 4.94604 17.326C4.79564 21.5724 4.93804 25.81 5.33684 29.7348C5.40364 30.3312 5.46884 30.9224 5.39124 31.3044C5.32764 31.6692 4.74044 31.8584 3.89324 31.852Z" fill="white"></path><path d="M36.5064 8.7076C36.2612 9.7208 36.1328 10.7708 35.896 11.8448C32.896 11.4556 29.3728 11.1704 25.416 11.0312C25.0984 12.0356 24.7976 13.0188 24.4536 14.092C31.0756 14.4992 34.2936 16.2444 36.2024 18.3008C38.0588 20.3808 38.4528 22.6788 38.3456 24.8124C38.1068 28.28 36.578 30.4716 34.48 32.0964C32.3568 33.6964 29.7884 34.49 27.734 34.6628C24.7024 34.8896 20.6488 34.168 19.7864 33.64C19.2664 32.4584 18.7556 31.268 18.2048 29.9696C18.0708 29.6932 17.9864 29.4096 18.3648 29.0804C18.9544 28.5152 19.5216 27.9684 20.1184 27.3892C20.382 27.1316 20.6744 26.8916 20.896 27.2608C21.7112 28.518 22.4752 29.6716 23.2404 30.8208C24.1096 32.1028 25.4336 33.2712 28.326 33.0768C30.7576 32.8592 32.606 31.02 32.8032 28.9968C33.016 25.2528 29.228 22.5968 19.3776 21.746C21.268 16.04 23.11 10.5172 24.5836 6.128C26.9236 6.236 29.0896 6.4268 31.1588 6.694C32.6892 6.8888 34.1112 7.2452 35.5372 7.41C31.8708 2.8904 26.2752 0 20 0C8.95482 0 1.94689e-05 8.9544 1.94689e-05 20C-0.0059447 24.2657 1.35855 28.4204 3.89242 31.852C4.73962 31.8584 5.32682 31.6692 5.39042 31.304C5.46802 30.922 5.40282 30.3308 5.33602 29.7344C4.93602 25.8096 4.79482 21.572 4.94522 17.3256C3.93082 17.3696 3.02042 17.4152 2.14762 17.4664C2.18282 16.6812 2.22522 15.9372 2.28842 15.1628C3.15042 15.08 4.06362 15.0076 5.06682 14.9228C5.10962 14.2464 5.15802 13.5916 5.21642 12.9304C5.66682 8.88 9.93162 6.4032 13.484 5.4472C15.0604 5.0632 16.0244 4.942 16.7812 4.9024C17.0548 4.8936 17.3496 4.8828 17.6432 4.8828C18.3796 4.8828 19.1268 4.9516 19.6 5.2732C20.3664 5.8476 21.1236 6.4192 21.9288 7.0548C22.0088 7.1636 22.0968 7.3348 21.8968 7.6288C21.5272 8.0612 21.1704 8.4744 20.7948 8.9192C20.5784 9.182 20.2192 9.1128 19.9168 9.0308C19.2832 8.7064 18.6736 8.4084 18.0552 8.1088C16.9352 7.6104 15.7752 7.0976 14.4844 7.1488C13.6792 7.2132 12.8996 8.0372 12.8188 9.1644C12.7072 10.8796 12.6324 12.638 12.5692 14.5428C14.8072 14.48 17.04 14.44 19.394 14.4296C19.394 14.9652 19.3904 15.4564 19.3904 16.0052C18.6224 16.3484 17.8984 16.6952 17.1288 17.0452C15.5408 17.0636 14.0296 17.076 12.5076 17.1024C12.4372 21.634 12.504 26.1488 12.7076 30.3228C12.7476 30.9528 12.778 31.5908 12.9592 32.018C13.1764 32.5556 14.4256 32.97 17.1432 33.1232C17.154 33.5964 17.1672 34.0432 17.1832 34.5016C12.758 34.3728 8.50882 33.9492 5.10322 33.3364C8.76282 37.4252 14.08 40 20 40C31.046 40 40 31.0452 40 20C40.0059 15.9689 38.7876 12.0311 36.5064 8.7076Z" fill="#E4002B"></path></g><defs><clipPath id="clip0_14435_426"><rect width="40" height="40" fill="white"></rect></clipPath></defs></svg>