<?xml version="1.0" encoding="utf-8"?>
<!-- Generator: Adobe Illustrator 27.0.0, SVG Export Plug-In . SVG Version: 6.00 Build 0)  -->
<svg version="1.1" id="Layer_1" xmlns="http://www.w3.org/2000/svg" xmlns:xlink="http://www.w3.org/1999/xlink" x="0px" y="0px"
	 viewBox="0 0 200 60" style="enable-background:new 0 0 200 60;" xml:space="preserve">
<style type="text/css">
	.st0{opacity:0.9;}
	.st1{fill:#FFFFFF;}
</style>
<g class="st0">
	<path class="st1" d="M42.48,44.43v3.94c0.02,0.95-0.59,1.79-1.81,2.53c-1.15,0.69-2.4,1.03-3.74,1.03c-1.1,0-3-0.82-5.71-2.44
		c-1.79-1.07-4.29-2.75-7.54-5.04c-3.42-2.41-5.5-3.84-6.26-4.3v18.54h-5.57V39.08c0-0.82,0.66-1.56,1.99-2.22
		c1.21-0.62,2.4-0.93,3.56-0.93c1.44,0,4.54,1.61,9.31,4.84c3.36,2.35,6.7,4.7,10.05,7.04v-3.38"/>
	<path class="st1" d="M36.81,43.01v-3.93c0-0.82,0.66-1.56,1.99-2.23c1.21-0.62,2.4-0.93,3.56-0.93c1.44,0,4.54,1.61,9.31,4.84
		c3.35,2.34,6.71,4.69,10.05,7.04V27.84h5.72v20.52c0.02,0.95-0.59,1.79-1.81,2.53c-1.15,0.69-2.4,1.03-3.74,1.03
		c-1.1,0-2.99-0.81-5.7-2.44c-1.79-1.07-4.3-2.74-7.54-5.04c-3.42-2.41-5.5-3.84-6.26-4.3v2.86"/>
	<rect x="3.31" y="36.27" class="st1" width="6.18" height="15.67"/>
	<path class="st1" d="M93.85,40.41H74.51v7.25h19.35V40.41z M99.67,44.1c0,2.12-0.07,3.45-0.22,3.98c-0.17,0.74-0.91,1.53-2.24,2.38
		c-1.32,0.85-2.51,1.28-3.58,1.28H74.7c-1.96,0-3.45-0.54-4.46-1.64c-0.76-0.82-1.25-1.95-1.45-3.37c-0.07-0.52-0.11-1.46-0.11-2.83
		c0-2.22,0.36-3.88,1.06-5c1.05-1.7,3-2.55,5.84-2.55h17.88c2.05,0,3.6,0.57,4.65,1.73c0.77,0.85,1.25,2,1.45,3.46
		C99.63,41.91,99.67,42.77,99.67,44.1"/>
	<path class="st1" d="M126.45,40.35h-19.47v7.59h19.47V40.35z M132.26,44.06c0,1.29-0.03,2.15-0.09,2.57
		c-0.22,1.48-0.75,2.66-1.6,3.54c-1.14,1.18-2.82,1.78-5.05,1.78H101.2V36.27h24.47c2.18,0,3.82,0.57,4.93,1.69
		c0.83,0.83,1.35,1.97,1.57,3.42C132.23,41.82,132.26,42.71,132.26,44.06"/>
	<path class="st1" d="M164.68,40.35h-25.32V42h25.32v4.1h-25.17v1.68h25.17v4.16h-24.35c-2.94,0-4.9-1.08-5.88-3.24
		c-0.48-1.05-0.71-2.58-0.71-4.58c0-1.57,0.02-2.55,0.08-2.92c0.2-1.43,0.73-2.54,1.58-3.35c1.12-1.05,2.82-1.58,5.08-1.58h24.19"/>
	<path class="st1" d="M193.24,40.35h-20.48v1.9h20.48V40.35z M199.06,41.22c0,1.08-0.59,2.14-1.77,3.18
		c-1.28,1.11-2.75,1.66-4.39,1.66h-20.12v5.73h-5.82V36.27h25.05c1.9,0,3.57,0.52,4.99,1.56C198.37,38.84,199.06,39.97,199.06,41.22
		"/>
	<path class="st1" d="M10.3,31.15c0,2.23-1.81,4.04-4.04,4.04c-2.23,0-4.04-1.81-4.04-4.04c0-2.23,1.81-4.04,4.04-4.04
		C8.49,27.11,10.3,28.92,10.3,31.15"/>
	<path class="st1" d="M70.1,28.09h1.31v5.18H70.1V28.09z M71.5,26.64c0,0.38-0.29,0.7-0.74,0.7c-0.44,0-0.72-0.32-0.72-0.7
		c0-0.4,0.3-0.71,0.73-0.71C71.21,25.93,71.49,26.24,71.5,26.64"/>
	<path class="st1" d="M72.4,29.63c0-0.6-0.02-1.1-0.04-1.54h1.14l0.06,0.77h0.03c0.23-0.4,0.8-0.89,1.66-0.89
		c0.9,0,1.84,0.59,1.84,2.22v3.07h-1.31v-2.92c0-0.74-0.28-1.31-0.99-1.31c-0.52,0-0.88,0.37-1.02,0.77
		c-0.04,0.11-0.06,0.27-0.06,0.42v3.05H72.4"/>
	<path class="st1" d="M78.06,29.63c0-0.6-0.02-1.1-0.04-1.54h1.14l0.06,0.77h0.03c0.23-0.4,0.8-0.89,1.66-0.89
		c0.9,0,1.84,0.59,1.84,2.22v3.07h-1.31v-2.92c0-0.74-0.28-1.31-0.99-1.31c-0.52,0-0.88,0.37-1.02,0.77
		c-0.04,0.11-0.06,0.27-0.06,0.42v3.05h-1.31"/>
	<path class="st1" d="M84.74,30.68c0,1,0.5,1.75,1.29,1.75c0.75,0,1.26-0.72,1.26-1.78c0-0.81-0.36-1.74-1.25-1.74
		C85.11,28.92,84.74,29.82,84.74,30.68 M88.64,30.63c0,1.9-1.34,2.75-2.66,2.75c-1.46,0-2.59-1-2.59-2.67c0-1.7,1.12-2.74,2.68-2.74
		C87.61,27.97,88.64,29.05,88.64,30.63"/>
	<path class="st1" d="M90.03,28.09l0.84,2.62c0.15,0.46,0.26,0.87,0.35,1.3h0.03c0.1-0.43,0.21-0.83,0.35-1.3l0.83-2.62h1.37
		l-1.98,5.18h-1.29l-1.92-5.18"/>
	<path class="st1" d="M96.86,30.73c-0.93-0.01-1.81,0.18-1.81,0.97c0,0.51,0.33,0.74,0.74,0.74c0.53,0,0.9-0.34,1.03-0.71
		c0.03-0.1,0.03-0.19,0.03-0.29 M98.13,32.02c0,0.47,0.02,0.93,0.08,1.24h-1.18l-0.1-0.57h-0.03c-0.31,0.4-0.85,0.69-1.53,0.69
		c-1.04,0-1.63-0.75-1.63-1.54c0-1.3,1.16-1.97,3.07-1.96V29.8c0-0.34-0.14-0.9-1.05-0.9c-0.51,0-1.04,0.16-1.39,0.38l-0.26-0.85
		c0.38-0.23,1.05-0.46,1.87-0.46c1.66,0,2.14,1.05,2.14,2.19V32.02z"/>
	<path class="st1" d="M100.53,26.76v1.33h1.24v0.98h-1.24v2.29c0,0.64,0.17,0.96,0.67,0.96c0.23,0,0.36-0.01,0.51-0.05l0.02,0.99
		c-0.19,0.08-0.54,0.14-0.95,0.14c-0.49,0-0.88-0.16-1.13-0.43c-0.29-0.3-0.41-0.77-0.41-1.46v-2.43h-0.73v-0.98h0.73v-0.97"/>
	<path class="st1" d="M102.34,28.09h1.31v5.18h-1.31V28.09z M103.73,26.64c0,0.38-0.29,0.7-0.74,0.7c-0.44,0-0.72-0.32-0.72-0.7
		c0-0.4,0.3-0.71,0.73-0.71C103.44,25.93,103.72,26.24,103.73,26.64"/>
	<path class="st1" d="M105.46,28.09l0.84,2.62c0.15,0.46,0.26,0.87,0.35,1.3h0.03c0.1-0.43,0.21-0.83,0.35-1.3l0.83-2.62h1.37
		l-1.98,5.18h-1.29l-1.92-5.18"/>
	<path class="st1" d="M112.67,30.13c0.01-0.48-0.2-1.26-1.07-1.26c-0.81,0-1.15,0.73-1.2,1.26 M110.4,31.04
		c0.03,0.93,0.75,1.34,1.59,1.34c0.61,0,1.03-0.1,1.44-0.23l0.19,0.89c-0.45,0.19-1.06,0.33-1.81,0.33c-1.68,0-2.67-1.03-2.67-2.62
		c0-1.44,0.87-2.78,2.53-2.78c1.68,0,2.23,1.38,2.23,2.52c0,0.24-0.02,0.43-0.04,0.55H110.4z"/>
	<path class="st1" d="M119.77,30.24c0-0.11-0.01-0.24-0.03-0.35c-0.12-0.5-0.53-0.91-1.13-0.91c-0.84,0-1.31,0.75-1.31,1.7
		c0,0.96,0.47,1.65,1.3,1.65c0.53,0,1-0.36,1.13-0.93c0.03-0.12,0.04-0.24,0.04-0.38 M121.08,25.71v6.09c0,0.53,0.02,1.1,0.04,1.46
		h-1.16l-0.06-0.82h-0.02c-0.31,0.57-0.93,0.94-1.68,0.94c-1.24,0-2.22-1.05-2.22-2.65c-0.01-1.73,1.07-2.76,2.32-2.76
		c0.71,0,1.22,0.29,1.46,0.67h0.02v-2.92H121.08z"/>
	<path class="st1" d="M125.26,30.13c0.01-0.48-0.2-1.26-1.07-1.26c-0.81,0-1.15,0.73-1.2,1.26 M122.99,31.04
		c0.03,0.93,0.75,1.34,1.59,1.34c0.61,0,1.03-0.1,1.44-0.23l0.19,0.89c-0.45,0.19-1.06,0.33-1.81,0.33c-1.68,0-2.67-1.03-2.67-2.62
		c0-1.44,0.87-2.78,2.53-2.78c1.68,0,2.23,1.38,2.23,2.52c0,0.24-0.02,0.43-0.04,0.55H122.99z"/>
	<path class="st1" d="M127.92,28.09l0.84,2.62c0.15,0.46,0.26,0.87,0.35,1.3h0.03c0.1-0.43,0.21-0.83,0.35-1.3l0.83-2.62h1.37
		l-1.98,5.18h-1.29l-1.92-5.18"/>
	<path class="st1" d="M135.13,30.13c0.01-0.48-0.2-1.26-1.07-1.26c-0.81,0-1.15,0.73-1.2,1.26 M132.85,31.04
		c0.03,0.93,0.75,1.34,1.59,1.34c0.61,0,1.03-0.1,1.44-0.23l0.19,0.89c-0.45,0.19-1.06,0.33-1.81,0.33c-1.68,0-2.67-1.03-2.67-2.62
		c0-1.44,0.87-2.78,2.53-2.78c1.68,0,2.23,1.38,2.23,2.52c0,0.24-0.02,0.43-0.04,0.55H132.85z"/>
	<rect x="136.99" y="25.71" class="st1" width="1.31" height="7.55"/>
	<path class="st1" d="M140.32,30.68c0,1,0.5,1.75,1.29,1.75c0.75,0,1.27-0.72,1.27-1.78c0-0.81-0.36-1.74-1.26-1.74
		C140.69,28.92,140.32,29.82,140.32,30.68 M144.22,30.63c0,1.9-1.34,2.75-2.66,2.75c-1.46,0-2.59-1-2.59-2.67
		c0-1.7,1.12-2.74,2.68-2.74C143.19,27.97,144.22,29.05,144.22,30.63"/>
	<path class="st1" d="M146.18,31.09c0,0.13,0.01,0.24,0.03,0.36c0.14,0.53,0.59,0.91,1.16,0.91c0.83,0,1.32-0.69,1.32-1.71
		c0-0.91-0.45-1.66-1.28-1.66c-0.54,0-1.04,0.39-1.18,0.97c-0.02,0.1-0.04,0.22-0.04,0.33 M144.87,29.81c0-0.68-0.02-1.23-0.04-1.72
		h1.15l0.06,0.8h0.02c0.38-0.59,0.99-0.91,1.77-0.91c1.19,0,2.18,1.02,2.18,2.64c0,1.87-1.18,2.78-2.36,2.78
		c-0.65,0-1.19-0.28-1.46-0.69h-0.02v2.68h-1.31V29.81z"/>
	<path class="st1" d="M150.67,29.63c0-0.6-0.02-1.1-0.04-1.54h1.12l0.06,0.76h0.03c0.24-0.4,0.71-0.88,1.6-0.88
		c0.68,0,1.21,0.38,1.43,0.96h0.02c0.18-0.29,0.39-0.5,0.63-0.65c0.3-0.2,0.63-0.31,1.06-0.31c0.85,0,1.72,0.59,1.72,2.24v3.05
		h-1.28V30.4c0-0.86-0.3-1.37-0.93-1.37c-0.45,0-0.77,0.32-0.91,0.69c-0.04,0.12-0.06,0.29-0.06,0.44v3.1h-1.28v-3
		c0-0.72-0.29-1.23-0.89-1.23c-0.49,0-0.82,0.38-0.95,0.73c-0.04,0.14-0.06,0.29-0.06,0.44v3.06h-1.28"/>
	<path class="st1" d="M162.46,30.13c0.01-0.48-0.2-1.26-1.07-1.26c-0.81,0-1.15,0.73-1.2,1.26 M160.18,31.04
		c0.03,0.93,0.75,1.34,1.59,1.34c0.61,0,1.03-0.1,1.44-0.23l0.19,0.89c-0.45,0.19-1.06,0.33-1.81,0.33c-1.68,0-2.67-1.03-2.67-2.62
		c0-1.44,0.87-2.78,2.53-2.78c1.68,0,2.23,1.38,2.23,2.52c0,0.24-0.02,0.43-0.04,0.55H160.18z"/>
	<path class="st1" d="M164.32,29.63c0-0.6-0.02-1.1-0.04-1.54h1.14l0.06,0.77h0.03c0.23-0.4,0.8-0.89,1.66-0.89
		c0.9,0,1.84,0.59,1.84,2.22v3.07h-1.31v-2.92c0-0.74-0.28-1.31-0.99-1.31c-0.52,0-0.88,0.37-1.02,0.77
		c-0.04,0.11-0.06,0.27-0.06,0.42v3.05h-1.31"/>
	<path class="st1" d="M171.42,26.76v1.33h1.24v0.98h-1.24v2.29c0,0.64,0.17,0.96,0.67,0.96c0.23,0,0.36-0.01,0.51-0.05l0.02,0.99
		c-0.19,0.08-0.54,0.14-0.95,0.14c-0.49,0-0.88-0.16-1.13-0.43c-0.29-0.3-0.41-0.77-0.41-1.46v-2.43h-0.73v-0.98h0.73v-0.97"/>
	<g>
		<rect x="54.01" y="17.79" class="st1" width="7.73" height="1.52"/>
		<path class="st1" d="M47.29,1.31v21.8h20.47V1.31H47.29z M58.15,5.26h2.08v8.4h-2.08v-3.18H55.4V8.66h2.75V5.26z M49.85,6h6.21
			v1.93H52v3.62l1.82-0.02c0.62-0.01,1.22-0.05,1.81-0.11c0.59-0.06,1.04-0.12,1.35-0.17v1.88c-0.31,0.05-0.87,0.11-1.68,0.19
			c-0.81,0.07-1.66,0.12-2.56,0.15h-2.9V6z M63.9,21.15H51.87V14.4h2.14v1.54h7.73V14.4h2.16V21.15z M63.95,13.66h-2.08V4.98h2.08
			V13.66z"/>
		<path class="st1" d="M24.12,23.1h20.46V1.31H24.12V23.1z M25.66,17.62h6.99v-3.94h-4.89V5.85h2.16v5.95h10.26v1.88h-5.22v3.94
			h7.06v1.88H25.66V17.62z"/>
		<path class="st1" d="M0.94,23.1h20.47V1.31H0.94V23.1z M15.34,4.98h2.14v16.36h-2.14V4.98z M4.58,7.8
			c0.83-1.11,1.94-1.66,3.33-1.66c1.4,0,2.51,0.56,3.33,1.68c0.82,1.12,1.23,2.6,1.23,4.45c0,1.83-0.41,3.31-1.23,4.42
			c-0.82,1.12-1.93,1.67-3.33,1.67c-1.39,0-2.5-0.56-3.33-1.67c-0.83-1.12-1.25-2.59-1.25-4.42C3.34,10.39,3.75,8.9,4.58,7.8z"/>
		<path class="st1" d="M7.93,16.45c0.77,0,1.36-0.42,1.78-1.26c0.42-0.84,0.63-1.82,0.63-2.94c0-1.1-0.21-2.08-0.63-2.93
			C9.29,8.47,8.69,8.05,7.93,8.05c-0.76,0-1.35,0.43-1.79,1.28c-0.44,0.85-0.66,1.83-0.66,2.92c0,1.1,0.22,2.08,0.66,2.93
			C6.57,16.02,7.17,16.45,7.93,16.45z"/>
	</g>
</g>
</svg>
